<?xml version="1.0" encoding="utf-8"?>
<!-- Generator: Adobe Illustrator 16.0.3, SVG Export Plug-In . SVG Version: 6.00 Build 0)  -->
<!DOCTYPE svg PUBLIC "-//W3C//DTD SVG 1.1//EN" "http://www.w3.org/Graphics/SVG/1.1/DTD/svg11.dtd">
<svg version="1.1" id="Layer_1" xmlns="http://www.w3.org/2000/svg" xmlns:xlink="http://www.w3.org/1999/xlink" x="0px" y="0px"
	 width="416px" height="205px" viewBox="0 0 416 205" style="enable-background:new 0 0 416 205;" xml:space="preserve">
<style type="text/css">
<![CDATA[
	.st0{fill-rule:evenodd;clip-rule:evenodd;}
	.st1{fill:#FFFFFF;}
	.st2{fill-rule:evenodd;clip-rule:evenodd;fill:#FFFFFF;}
]]>
</style>
<g>
	<path class="st1" d="M0,205C0,136.667,0,68.333,0,0c138.667,0,277.333,0,416,0c0,68.333,0,136.666,0,205
		C277.334,205,138.667,205,0,205z M187.259,108.364c10.177,3.547,19.499,6.927,28.908,10.045c15.269,5.059,31.304,7.801,45.489,16.1
		c9.677,5.661,19.459,11.036,25.827,20.685c3.034,4.598,1.944,9.166-3.163,10.979c-3.555,1.262-8.168,2.172-11.471,0.96
		c-6.916-2.539-13.188-6.776-19.896-9.956c-7.432-3.522-14.85-7.314-22.668-9.701c-5.225-1.596-11.672-2.215-16.234,1.847
		c-2.795,2.488-5.142,6.663-5.564,10.326c-0.504,4.358,4.151,4.604,7.584,5.377c4.829,1.087,9.789,2.013,14.316,3.906
		c4.872,2.038,9.709,4.604,13.859,7.839c9.842,7.671,20.91,8.847,32.894,8.706c12.696-0.149,20.722-7.646,28.886-15.47
		c0.902-0.864,1.413-2.279,1.782-3.533c4.42-15.029,0.274-27.727-13.301-35.744c-12.408-7.329-25.655-13.236-38.519-19.798
		c-1.902-0.971-4.018-1.789-5.522-3.218c-3.137-2.977-5.932-6.314-9.124-9.783c1.093-1.998,2.702-5.075,4.439-8.078
		c1.825-3.157,3.77-6.246,5.67-9.36c4.588-7.523,3.975-20.898-2.119-27.09c-10.855-11.032-22.826-20.105-39.818-17.523
		c-4.822,0.732-10.016,1.204-12.458,5.989c-1.368,2.68-1.753,6.366-1.141,9.298c0.237,1.134,4.414,1.755,6.864,2.052
		c4.853,0.588,10.054-0.981,14.308,2.866c3.828,3.463,7.955,6.603,11.684,10.165c6.311,6.029,6.746,11.444,2.018,18.604
		c-3.204,4.854-7.631,6.771-13.418,7.151c-10.127,0.665-21.037-3.384-30.176,5.171c0-20.654,0.07-40.646-0.106-60.636
		c-0.018-2.03-1.055-5.277-2.426-5.785c-2.134-0.792-5.397-0.466-7.406,0.711c-4.893,2.866-6.327,8.047-6.284,13.347
		c0.069,8.626,0.943,17.249,0.889,25.869c-0.103,16.38-0.573,32.759-0.995,49.136c-0.153,5.963-0.872,11.919-0.847,17.877
		c0.028,6.617,0.204,13.288,1.099,19.829c0.58,4.237,3.948,5.551,7.972,3.861c5.252-2.203,8.152-6.177,8.162-11.996
		C187.274,136.234,187.259,123.082,187.259,108.364z M102.808,176.462c0.057-0.399,0.114-0.799,0.171-1.198
		c4.996,0,9.998,0.152,14.988-0.03c12.455-0.454,23.952-9.737,23.398-23.406c-0.175-4.324,0.02-8.662-0.118-12.989
		c-0.208-6.543-2.487-9.425-8.72-10.938c-7.758-1.883-15.497-1.638-23.013,1.098c-4.286,1.56-7.666,1.092-10.563-2.705
		c-0.897-1.176-2.637-2.369-4.011-2.392c-3.414-0.056-3.75-1.904-3.611-4.537c0.106-1.993,0.206-4.018-0.019-5.99
		c-0.482-4.235,0.723-6.014,5.492-6.494c2.951-0.297,6.312-3.026,8.243-5.599c4.1-5.461,1.556-10.392-5.265-11.348
		C87.64,88.23,76.929,94.781,75.13,106.938c-1.461,9.879-0.795,20.14-0.343,30.198c0.151,3.371,1.825,7.3,4.096,9.799
		c3.253,3.582,2.312,5.929-0.309,8.853c-2.092,2.335-4.474,4.596-5.873,7.326c-2.391,4.668-0.744,8.365,4.213,9.308
		C85.492,174.053,94.171,175.145,102.808,176.462z M358.691,27.459c-5.27,0.473-10.529,1.14-15.811,1.384
		c-20.857,0.966-22.794,17.802-18.26,32.423c1.612,5.201,5.293,5.881,9.841,2.813c4.641-3.13,6.157-7.699,5.748-13.012
		c-0.321-4.173,1.062-5.729,5.589-5.87c8.564-0.27,16.402,0.109,20.648,9.198c0.322,0.688,1.24,1.085,1.838,1.66
		c6.734,6.479,7.394,15.694,1.869,23.304c-3.01,4.148-5.925,8.392-8.527,12.802c-2.016,3.413-2.85,7.665-5.296,10.655
		c-10.425,12.744-10.157,27.664-9.288,42.705c0.319,5.539,5.217,7.996,10.111,5.418c4.243-2.235,6.926-5.707,7.047-10.696
		c0.122-4.992-0.268-10.029,0.275-14.969c0.381-3.473,1.601-6.975,3.066-10.18c2.477-5.415,5.314-10.679,8.257-15.86
		c1.661-2.925,3.62-5.742,5.817-8.286c4.047-4.686,10.048-7.874,10.596-15.093c0.922-12.121-0.149-23.959-5.144-35.146
		c-1.169-2.618-3.247-5.005-5.384-6.981C375.153,27.688,367.057,27.202,358.691,27.459z M62.234,122.999
		c0-6.651,0.137-13.307-0.046-19.953c-0.132-4.797-3.097-6.679-7.718-5.278c-5.72,1.733-9.429,7.485-9.525,15.382
		c-0.132,10.808-0.277,21.628,0.126,32.422c0.104,2.792,1.739,7.342,3.551,7.833c2.763,0.748,6.952-0.527,9.308-2.448
		c2.247-1.832,3.821-5.506,4.105-8.52C62.641,136.009,62.221,129.484,62.234,122.999z M340.896,176.449
		c-0.005,5.701,1.378,8.827,4.286,9.687c6.545,1.937,13.751-1.105,16.034-7.489c1.536-4.296,2.291-8.964,2.733-13.529
		c0.366-3.79-1.604-6.129-5.896-6.268C348.109,158.525,340.904,165.801,340.896,176.449z M53.473,91.418
		c9.533-0.087,14.933-6.711,14.849-17.761c-0.028-3.673-1.768-5.448-4.961-6.401c-9.101-2.717-19.423,4.372-19.301,13.828
		C44.152,88.294,46.661,92.13,53.473,91.418z"/>
	<path class="st0" d="M187.259,108.364c0,14.718,0.015,27.87-0.006,41.022c-0.01,5.819-2.91,9.793-8.162,11.996
		c-4.024,1.689-7.393,0.376-7.972-3.861c-0.895-6.541-1.07-13.212-1.099-19.829c-0.025-5.958,0.694-11.914,0.847-17.877
		c0.422-16.377,0.892-32.756,0.995-49.136c0.054-8.62-0.82-17.243-0.889-25.869c-0.043-5.3,1.391-10.48,6.284-13.347
		c2.009-1.177,5.271-1.503,7.406-0.711c1.371,0.508,2.408,3.755,2.426,5.785c0.176,19.989,0.106,39.981,0.106,60.636
		c9.139-8.555,20.049-4.506,30.176-5.171c5.787-0.38,10.214-2.298,13.418-7.151c4.729-7.159,4.293-12.574-2.018-18.604
		c-3.729-3.562-7.855-6.702-11.684-10.165c-4.254-3.848-9.455-2.278-14.308-2.866c-2.45-0.297-6.627-0.918-6.864-2.052
		c-0.612-2.932-0.227-6.618,1.141-9.298c2.442-4.785,7.636-5.257,12.458-5.989c16.992-2.582,28.963,6.491,39.818,17.523
		c6.094,6.191,6.707,19.566,2.119,27.09c-1.9,3.114-3.845,6.203-5.67,9.36c-1.737,3.003-3.347,6.08-4.439,8.078
		c3.192,3.469,5.987,6.807,9.124,9.783c1.505,1.429,3.62,2.247,5.522,3.218c12.863,6.562,26.11,12.469,38.519,19.798
		c13.575,8.018,17.721,20.715,13.301,35.744c-0.369,1.254-0.88,2.669-1.782,3.533c-8.164,7.823-16.189,15.32-28.886,15.47
		c-11.983,0.141-23.052-1.035-32.894-8.706c-4.15-3.235-8.987-5.801-13.859-7.839c-4.527-1.894-9.487-2.819-14.316-3.906
		c-3.433-0.773-8.088-1.019-7.584-5.377c0.423-3.663,2.77-7.838,5.564-10.326c4.562-4.062,11.01-3.442,16.234-1.847
		c7.818,2.387,15.236,6.179,22.668,9.701c6.708,3.18,12.98,7.417,19.896,9.956c3.303,1.212,7.916,0.302,11.471-0.96
		c5.107-1.812,6.197-6.381,3.163-10.979c-6.368-9.648-16.15-15.023-25.827-20.685c-14.186-8.299-30.221-11.041-45.489-16.1
		C206.758,115.291,197.436,111.911,187.259,108.364z"/>
	<path class="st0" d="M102.808,176.462c-8.637-1.317-17.316-2.409-25.894-4.04c-4.958-0.942-6.604-4.64-4.213-9.308
		c1.399-2.73,3.78-4.991,5.873-7.326c2.621-2.924,3.562-5.271,0.309-8.853c-2.271-2.499-3.944-6.428-4.096-9.799
		c-0.452-10.059-1.118-20.319,0.343-30.198c1.798-12.157,12.51-18.708,24.651-17.005c6.82,0.956,9.364,5.887,5.265,11.348
		c-1.931,2.572-5.292,5.302-8.243,5.599c-4.769,0.48-5.974,2.259-5.492,6.494c0.225,1.973,0.125,3.997,0.019,5.99
		c-0.14,2.633,0.197,4.481,3.611,4.537c1.374,0.022,3.114,1.216,4.011,2.392c2.897,3.797,6.277,4.265,10.563,2.705
		c7.516-2.735,15.255-2.98,23.013-1.098c6.233,1.513,8.512,4.395,8.72,10.938c0.138,4.327-0.057,8.665,0.118,12.989
		c0.554,13.669-10.943,22.952-23.398,23.406c-4.99,0.183-9.992,0.03-14.988,0.03C102.922,175.663,102.865,176.062,102.808,176.462z
		 M88.556,149.904c1.741,0.292,3.479,0.81,5.224,0.834c6.125,0.088,12.254,0.054,18.38-0.028c4.692-0.062,5.16-0.888,3.324-6.125
		C107.366,150.9,97.665,147.151,88.556,149.904z"/>
	<path class="st0" d="M358.691,27.459c8.365-0.257,16.462,0.229,22.994,6.269c2.137,1.977,4.215,4.363,5.384,6.981
		c4.994,11.188,6.065,23.025,5.144,35.146c-0.548,7.219-6.549,10.407-10.596,15.093c-2.197,2.544-4.156,5.361-5.817,8.286
		c-2.942,5.182-5.78,10.445-8.257,15.86c-1.466,3.205-2.686,6.707-3.066,10.18c-0.543,4.939-0.153,9.977-0.275,14.969
		c-0.121,4.989-2.804,8.461-7.047,10.696c-4.895,2.578-9.792,0.121-10.111-5.418c-0.869-15.041-1.137-29.961,9.288-42.705
		c2.446-2.99,3.28-7.242,5.296-10.655c2.603-4.41,5.518-8.653,8.527-12.802c5.524-7.609,4.865-16.824-1.869-23.304
		c-0.598-0.575-1.516-0.972-1.838-1.66c-4.246-9.089-12.084-9.468-20.648-9.198c-4.527,0.142-5.91,1.697-5.589,5.87
		c0.409,5.312-1.107,9.882-5.748,13.012c-4.548,3.067-8.229,2.388-9.841-2.813c-4.534-14.621-2.598-31.457,18.26-32.423
		C348.162,28.599,353.422,27.932,358.691,27.459z"/>
	<path class="st0" d="M62.227,122.999c-0.006,6.485,0.414,13.01-0.192,19.438c-0.284,3.014-1.858,6.688-4.105,8.52
		c-2.356,1.921-6.545,3.196-9.308,2.448c-1.812-0.491-3.447-5.041-3.551-7.833c-0.403-10.794-0.258-21.614-0.126-32.422
		c0.097-7.896,3.805-13.648,9.525-15.382c4.621-1.4,7.586,0.481,7.718,5.278C62.371,109.692,62.234,116.348,62.227,122.999z"/>
	<path class="st0" d="M340.896,176.449c0.009-10.648,7.214-17.924,17.157-17.6c4.292,0.139,6.263,2.478,5.896,6.268
		c-0.442,4.565-1.197,9.233-2.733,13.529c-2.283,6.384-9.489,9.426-16.034,7.489C342.273,185.276,340.891,182.15,340.896,176.449z"
		/>
	<path class="st0" d="M53.473,91.418c-6.812,0.712-9.321-3.124-9.414-10.334c-0.122-9.456,10.2-16.545,19.301-13.828
		c3.193,0.953,4.933,2.729,4.961,6.401C68.406,84.707,63.006,91.331,53.473,91.418z"/>
	<path class="st2" d="M88.556,149.904c9.108-2.753,18.81,0.996,26.928-5.319c1.836,5.237,1.369,6.062-3.324,6.125
		c-6.126,0.082-12.255,0.116-18.38,0.028C92.035,150.714,90.297,150.196,88.556,149.904z"/>
</g>
</svg>
