<?xml version="1.0" encoding="UTF-8" standalone="no"?>
<svg
   xmlns:dc="http://purl.org/dc/elements/1.1/"
   xmlns:cc="http://creativecommons.org/ns#"
   xmlns:rdf="http://www.w3.org/1999/02/22-rdf-syntax-ns#"
   xmlns:svg="http://www.w3.org/2000/svg"
   xmlns="http://www.w3.org/2000/svg"
   xmlns:sodipodi="http://sodipodi.sourceforge.net/DTD/sodipodi-0.dtd"
   xmlns:inkscape="http://www.inkscape.org/namespaces/inkscape"
   inkscape:version="1.0 (4035a4f, 2020-05-01)"
   sodipodi:docname="IsThirteen_Logo.svg"
   id="svg32"
   version="1.1"
   viewBox="0 0 512 512">
  <metadata
     id="metadata38">
    <rdf:RDF>
      <cc:Work
         rdf:about="">
        <dc:format>image/svg+xml</dc:format>
        <dc:type
           rdf:resource="http://purl.org/dc/dcmitype/StillImage" />
      </cc:Work>
    </rdf:RDF>
  </metadata>
  <defs
     id="defs36" />
  <sodipodi:namedview
     inkscape:current-layer="svg32"
     inkscape:window-maximized="0"
     inkscape:window-y="112"
     inkscape:window-x="285"
     inkscape:cy="250.2105"
     inkscape:cx="299.88026"
     inkscape:zoom="0.78239463"
     showgrid="false"
     id="namedview34"
     inkscape:window-height="685"
     inkscape:window-width="1014"
     inkscape:pageshadow="2"
     inkscape:pageopacity="0"
     guidetolerance="10"
     gridtolerance="10"
     objecttolerance="10"
     borderopacity="1"
     bordercolor="#666666"
     pagecolor="#ffffff" />
  <title
     id="title10">HTML5 Logo</title>
  <polygon
     style="fill:#2bc668;fill-opacity:1"
     id="polygon12"
     points="107.644,470.877 74.633,100.62 437.367,100.62 404.321,470.819 255.778,512    "
     fill="#E44D26" />
  <polygon
     style="fill:#29f164;fill-opacity:1"
     id="polygon14"
     points="256,480.523 376.03,447.246 404.27,130.894 256,130.894    "
     fill="#F16529" />
  <rect
     y="0"
     x="105.491"
     height="69.043999"
     width="23.077999"
     id="rect40"
     style="fill:#000000;fill-rule:evenodd;stroke-width:0.999996" />
  <path
     sodipodi:nodetypes="ccccccccccc"
     d="m 142.2077,0 v 21.375711 l 46.70959,27.00588 -46.70959,-0.721297 V 69.044 h 77.724 l -0.52428,-20.415434 -38,-28.570238 H 219.9317 V 0 Z"
     id="path24-5" />
  <path
     id="path24-5-5"
     d="M 404.444,0 V 21.375711 L 377.13411,34.524665 404.444,47.660294 V 69.044 H 326.72 V 48.628566 h 38.52428 L 337.60906,34.524665 V 34.172001 L 365.24428,20.058328 H 326.72 V 0 Z" />
  <rect
     style="fill:#000000;fill-rule:evenodd;stroke-width:0.999996"
     id="rect40-0"
     width="23.077999"
     height="69.043999"
     x="289.16299"
     y="0" />
  <path
     sodipodi:nodetypes="cccccccccccccc"
     style="fill:#ffffff;fill-opacity:1;stroke-width:2.2992"
     d="m 373.385,174.05571 0.146,47.66029 -61.12892,68.41462 51.26383,51.28391 L 356.937,407.634 264,433.399 V 386.153 L 314.49,372.521 263.843,313.627 264,268.217 311.99699,222.57417 264,221.716 v -47.66029 z"
     id="path24-5-5-5" />
  <path
     style="fill:#ebebeb;fill-opacity:1;stroke-width:2.93861"
     id="path24-5-4"
     d="m 157.02029,417.89301 57.10242,11.65632 -1.16155,-255.04551 -64.81244,-0.0639 z"
     sodipodi:nodetypes="ccccc" />
</svg>
